<svg id="visual" viewBox="0 0 675 900" width="675" height="900" xmlns="http://www.w3.org/2000/svg" xmlns:xlink="http://www.w3.org/1999/xlink" version="1.1"><rect x="0" y="0" width="675" height="900" fill="#001220"></rect><defs><linearGradient id="grad1_0" x1="0%" y1="0%" x2="100%" y2="100%"><stop offset="30%" stop-color="#001220" stop-opacity="1"></stop><stop offset="70%" stop-color="#001220" stop-opacity="1"></stop></linearGradient></defs><defs><linearGradient id="grad2_0" x1="0%" y1="0%" x2="100%" y2="100%"><stop offset="30%" stop-color="#001220" stop-opacity="1"></stop><stop offset="70%" stop-color="#001220" stop-opacity="1"></stop></linearGradient></defs><g transform="translate(675, 0)"><path d="M0 365.6C-48.1 356.1 -96.2 346.5 -134.3 324.3C-172.4 302 -200.5 267 -236.2 236.2C-271.8 205.3 -315 178.6 -337.8 139.9C-360.6 101.2 -363.1 50.6 -365.6 0L0 0Z" fill="#FBAE3C"></path></g><g transform="translate(0, 900)"><path d="M0 -365.6C41.1 -346 82.1 -326.3 129.3 -312.3C176.6 -298.2 229.9 -289.8 258.5 -258.5C287.2 -227.3 291.1 -173.2 304.9 -126.3C318.6 -79.4 342.1 -39.7 365.6 0L0 0Z" fill="#FBAE3C"></path></g></svg>