<svg id="visual" viewBox="0 0 675 900" width="675" height="900" xmlns="http://www.w3.org/2000/svg" xmlns:xlink="http://www.w3.org/1999/xlink" version="1.1"><rect x="0" y="0" width="675" height="900" fill="#001220"></rect><defs><linearGradient id="grad1_0" x1="0%" y1="0%" x2="100%" y2="100%"><stop offset="30%" stop-color="#001220" stop-opacity="1"></stop><stop offset="70%" stop-color="#001220" stop-opacity="1"></stop></linearGradient></defs><defs><linearGradient id="grad2_0" x1="0%" y1="0%" x2="100%" y2="100%"><stop offset="30%" stop-color="#001220" stop-opacity="1"></stop><stop offset="70%" stop-color="#001220" stop-opacity="1"></stop></linearGradient></defs><g transform="translate(675, 0)"><path d="M0 365.6C-48.7 353.5 -97.4 341.3 -130.1 314.1C-162.9 286.9 -179.7 244.7 -216.4 216.4C-253.1 188.1 -309.6 173.7 -337.8 139.9C-366 106.2 -365.8 53.1 -365.6 0L0 0Z" fill="#FBAE3C"></path></g><g transform="translate(0, 900)"><path d="M0 -365.6C46.3 -359.9 92.6 -354.1 139.9 -337.8C187.2 -321.5 235.5 -294.7 253.9 -253.9C272.2 -213.1 260.7 -158.3 274.4 -113.7C288 -69 326.8 -34.5 365.6 0L0 0Z" fill="#FBAE3C"></path></g></svg>